<?xml version="1.0" encoding="utf-8"?>
<svg version="1.1" id="Layer_1" xmlns="http://www.w3.org/2000/svg" xmlns:xlink="http://www.w3.org/1999/xlink" x="0px" y="0px"
	 viewBox="0 0 21 21" style="enable-background:new 0 0 21 21;" xml:space="preserve">
<style type="text/css">
	.st0{fill:#ffffff;}
	.st1{fill-rule:evenodd;clip-rule:evenodd;fill:#0D5BBA;}
</style>
<g>
	<path class="st0" d="M19.5,0H1.6C0.7,0,0,0.7,0,1.5v18C0,20.3,0.5,21,1.3,21h17.9c0.9,0,1.8-0.7,1.8-1.5v-18C21,0.7,20.3,0,19.5,0"
		/>
	<path class="st1" d="M19.5,0H1.6C0.7,0,0,0.7,0,1.5v18C0,20.3,0.5,21,1.3,21h17.9c0.9,0,1.8-0.7,1.8-1.5v-18C21,0.7,20.3,0,19.5,0z
		 M8,8h2.8v1.4h0c0.4-0.8,1.7-1.6,3.3-1.6c3,0,3.9,1.6,3.9,4.6V18h-3v-5c0-1.3-0.5-2.5-1.8-2.5c-1.5,0-2.2,1-2.2,2.7V18H8V8z M3,18
		h3V8H3V18z M6.4,4.5c0,1-0.8,1.9-1.9,1.9S2.6,5.5,2.6,4.5s0.8-1.9,1.9-1.9S6.4,3.5,6.4,4.5z"/>
</g>
</svg>
