<svg version="1.1" id="Layer_1" xmlns="http://www.w3.org/2000/svg" xmlns:xlink="http://www.w3.org/1999/xlink" x="0px" y="0px"
	 viewBox="0 0 450 190" style="enable-background:new 0 0 450 190;" xml:space="preserve">
<style type="text/css">
	.st0{fill:#FFF;}
</style>
<g>
	<path class="st0" d="M130.8,155.2c-2,0.2-4.9-0.6-8.7-2.3c-3.8-1.7-6.1-2.8-6.8-3.1c-13.6-5.6-24.9-10.2-34.1-13.7
		c-9.1-3.5-18.4-6.7-27.8-9.4c0-0.7-0.3-1.3-0.8-1.6c-0.5-0.4-1.2-0.5-1.9-0.5v-0.3c0-0.5-0.8-1.1-2.3-1.6c-1.5-0.5-2.8-0.9-3.7-1.1
		l-0.5-0.3l-0.3-0.8c-1.8-0.9-4.5-2.1-8.2-3.5c-5.1-2.2-8.8-4-11.1-5.4l-0.5,0.8l-1.1-1.4l-1.1,0.3l0.5-0.8c-0.7-0.2-2-0.5-3.8-1.1
		c-1.8-0.5-3.3-1.3-4.5-2.2c-1.2-0.9-2-2-2.6-3.3c0.7,0,1.5,0.1,2.3,0.4c0.8,0.3,1.6,0.5,2.3,0.7l-0.3-1.4h0.5l-0.3,0.3l0.3,0.5
		l1.1-0.5l-0.3,1.9c0.5-0.2,1-0.8,1.4-1.9l0.8,0.3c-0.2-0.2-0.6-0.5-1.4-1.1c-0.7-0.5-1.4-0.8-2.2-0.8l-1.4,0.5l-0.3-1.4l-1.4,0.5
		h-0.5c0,0.2,0.1,0.2,0.3,0.1c0.2-0.1,0.3-0.2,0.3-0.4c0-0.2-0.2-0.4-0.5-0.5c-0.4-0.2-0.6-0.3-0.8-0.3l-0.3,0.3l0.8,0.5v0.3
		l-2.2-0.3l0.5,0.3l-0.3,0.5l-1.1-1.4l-0.5,0.8l-0.3-0.3l1.1,1.9L8,104.6c-0.7,0-1.5-0.4-2.2-1.1s-1.4-1.3-1.9-1.6h1.9
		c-0.2-0.7-0.8-1.4-1.9-2.2c0.2-0.4,0.4-0.8,0.7-1.2S5,97.7,5,97.3l1.1,1.1l0.5-1.1L5.8,97l-1.1,0.3c-0.2-0.5-0.3-1.2-0.3-2
		c0-0.8-0.1-1.4-0.3-1.8l1.1,0.8C5.1,94.7,5,95.1,5,95.7c0,0.5,0.3,0.8,0.8,0.8l0.8-1.1l-0.8,0.8c0-1.4-0.2-2.4-0.5-3l1.6,1.1
		c0-0.4-0.2-0.7-0.7-1.1c-0.5-0.4-0.8-0.6-1-0.8L5,93.2l-0.8-1.6v-0.5H5l-0.3,1.1l0.8-0.8l1.4,0.5c0-1.1-0.5-1.6-1.6-1.6
		c2.7-1.4,5.2-2.7,7.5-3.8c2.3-1.1,4.2-2,5.8-2.7c5.1-2.2,9-3.9,11.7-5.3c2.7-1.4,5.4-3.1,8.2-5.3l0.3,0.5l1.9-1.4l0.3,0.3
		c8-4.3,16.2-8.1,24.7-11.1c0-0.4,0.2-0.7,0.7-1c0.4-0.3,0.8-0.4,1-0.4l1.4,0.5c0-1.1,0.9-1.8,2.7-2.2l0.3,0.5l-0.8,1.4l0.3,0.3
		c0.5-0.4,1.3-0.9,2.2-1.6c0.9-0.7,1.9-1.1,3-1.1c10.1-4.7,17.7-8.3,22.8-10.9c8.3-4,17.9-8.4,28.8-13.3v1.1c0.7,0,1.2,0.1,1.5,0.3
		s0.4,0.6,0.4,1.4l1.1-0.8v-4.1c0.9,1.4,1.3,3.3,1.2,5.7c-0.1,2.4-0.1,3.8-0.1,4.3l0.5-1.1l0.3,1.1l-0.3,2.7h1.1
		c-0.2,1.1-0.3,2.7-0.3,4.9l0.3,10.3c0,3.6-0.4,6.9-1.1,9.8c-3.6,2.4-7.5,4.3-11.7,6c-4.2,1.6-8.2,3.1-12,4.3
		c-3.8,1.3-6.3,2.1-7.6,2.4C97,83.4,92.9,85,88.9,87c-7.2,3.3-12.9,5.3-16.8,6.2c0.7,0.5,1.5,1,2.4,1.2c0.9,0.3,1.8,0.7,2.6,1.4
		c0.8,0.6,1.3,1.4,1.5,2.3l0.8-0.5c0.7,0.2,1.4,0.5,2.2,1.1c0.7,0.5,1.3,1.2,1.6,1.9c4.5,0.5,8.5,2.2,11.9,4.9l1.1-0.3
		c0.5,0,1.1,0.3,1.8,0.8c0.6,0.5,1.2,0.8,1.8,0.8l0.5-0.3l1.4,1.4h0.5l-0.3-0.8l0.8,1.1l-0.3,0.5l1.1-0.5l-0.3-0.5
		c0.7,0,1.3,0.3,1.8,0.8c0.4,0.5,0.7,1.2,0.7,1.9l0.5-1.4c0.2,0.4,0.8,0.8,1.8,1.2c1,0.5,1.6,0.9,1.8,1.2l-1.9-0.3l1.4,0.8v0.5
		l1.1-1.1c0.7,0.5,1.1,1.4,1.1,2.4l0.3-1.6l0.8,0.5l0.5-0.5c0.2,0.5,0.4,1.1,0.8,1.6c0.4,0.5,0.6,1.1,0.8,1.6l0.3-0.3v-1.4h0.5
		l0.3,0.3v1.4l1.1-0.5l0.3,0.5l0.5-0.5l0.3,1.1c1.1,0,1.4-0.3,1.1-0.8l0.3,0.5l-1.1,0.8l0.8,0.3l1.4-1.6l0.3,1.1l1.6-0.8l-0.3,0.3
		c0,0.4,0.4,0.7,1.4,1.1c0.9,0.4,1.4,0.6,1.6,0.8l-2.4-0.5c0.4,0.9,1.9,1.4,4.6,1.4l-1.9-0.8v-0.3c1.4,0.2,2.8,0.7,3.9,1.5
		c1.2,0.8,2,1.2,2.6,1.2l-0.5-0.8l0.5-0.5l0.5,0.3c0,0.2,0.2,0.5,0.7,0.8c0.5,0.4,0.7,0.9,0.7,1.6l-0.3,1.1c0.9,0.4,1.4,0.9,1.4,1.6
		v0.5c-0.5-0.2-1-0.8-1.4-1.9c0,2.7,0.2,6.8,0.5,12.2l0.3,12.2c0,4-0.2,7-0.5,9C132.3,155.9,131.3,155.5,130.8,155.2z M19.7,104.9
		l-0.3-0.3l-0.3,0.8l-0.8-0.8v0.3l1.1,1.1L19.7,104.9z M28.1,84.5l1.1-0.5l-1.4-0.3l-0.3,0.8l0.5,1.1V84.5z M31.1,83.5l1.4,0.3
		l-0.3-0.3c0-0.2,0.4-0.4,1.1-0.7c0.7-0.3,1.3-0.6,1.6-1L34.1,81v0.3c0,0.7-0.4,1.1-1.1,1.2c-0.7,0.1-1.1,0.4-1.1,1
		c-0.4-0.2-0.6-0.4-0.8-0.7c-0.2-0.3-0.5-0.5-0.8-0.7c0.2,0.4,0,0.6-0.5,0.8c-0.5,0.2-0.8,0.4-0.8,0.5l1.4-0.3l0.5,0.8L31.1,83.5z
		 M40.6,116.3l-2.2-0.8l1.1,1.1L40.6,116.3z M107.3,52.2c1.7-1.1,2.9-1.8,3.4-2.2c-1.1,0.5-2.9,1-5.4,1.4c-2.5,0.4-4.4,1-5.7,1.9
		c1.1,0.4,1.9,0.5,2.4,0.5C103.8,53.8,105.5,53.3,107.3,52.2z M106.6,141.6l-1.9-0.8h-0.3l1.9,1.1L106.6,141.6z M108.5,139.1
		c0-0.4-0.3-0.6-0.8-0.8c-0.5-0.2-0.8-0.4-0.8-0.5v-0.5l1.6,0.3l-1.6-0.5l-0.8,0.5h-0.5l0.3,1.6c0.9-0.2,1.8-0.1,2.7,0.3V139.1z
		 M107.9,113.1v-0.3l-1.1,0.3l-0.3-0.8l-0.8,0.5l1.9,0.5L107.9,113.1z M111.5,57.4c0-0.7,0.3-1.3,0.8-1.6c0.5-0.4,1.2-0.5,1.9-0.5
		l0.8,0.3l0.3-0.8c-0.2-0.4-0.4-0.8-0.5-1.4c-0.2-0.5-0.5-0.9-0.8-1.1c-0.7,0.5-2,1.1-3.8,1.6c-1.8,0.5-3.1,1.2-3.8,1.9l0.8,0.3
		l1.4-0.5l0.3,0.3l-0.8,0.8c1.1,0.7,2,1.1,2.7,1.1L111.5,57.4z M129,149.2c-0.8-2-1.6-3.6-2.3-4.9c0.2-2.7-0.6-4.5-2.4-5.3
		c-1.8-0.8-4.3-1.2-7.6-1.2h-4.3c-1.6,0-2.8-0.1-3.5-0.3l-0.3,0.5h1.1l-0.8,1.4c2,1.1,3.2,1.6,3.5,1.6l0.3-0.3
		c0,1.1,0.5,1.6,1.4,1.6l0.8-0.3l1.1,1.6l-0.5,1.1l-2.2-1.4v-0.3l-1.6,0.3v-1.1l-0.8,0.5c-0.9-0.4-1.5-0.8-1.6-1.4l-0.5,0.5l0.8,0.5
		l-2.4-0.3c0.9,0.5,1.8,0.8,2.7,0.8c1.8,1.6,5.6,3.5,11.4,5.7c4.5,1.6,8,3.3,10.3,4.9C130.6,152.7,129.8,151.2,129,149.2z
		 M116.6,145.7l-0.3-1.1l0.3-1.1c0.2,0.5,0.5,1,1,1.4c0.4,0.4,0.9,0.6,1.2,0.8l-0.3,0.3L116.6,145.7z M126.7,40.5
		c-0.2-0.5-0.3-1.4-0.3-2.4l-1.1-0.3v0.3l0.8,1.1l-0.3,0.5h0.3c0.2-0.7,0.3-0.4,0.3,1.1L126.7,40.5z M127.5,118.5h-0.3l-0.5,0.8
		L127.5,118.5z M127.8,38.6c-0.4-0.2-0.5-0.5-0.3-1c0.2-0.4,0.4-0.8,0.5-1l-0.3-0.8l-0.5,1.9l0.3,1.1L127.8,38.6z M128.7,34
		c-0.5,0-0.8-0.1-1-0.3l2.7-1.1l-0.8,1.1v0.5C129.5,34.1,129.2,34,128.7,34z M129.1,53.8c0-0.4,0.1-0.8,0.4-1.2
		c0.3-0.5,0.4-1,0.4-1.5l-0.3-0.8h-0.8c0,0.5-0.1,1-0.3,1.5c-0.2,0.5-0.3,1-0.3,1.5l1.1,1.4C129.2,54.5,129.1,54.2,129.1,53.8z"/>
	<path class="st0" d="M156.6,150h-0.3l0.3-1.1c0.2,0.2,0.3,0.5,0.4,1.1c0.1,0.5,0.3,0.9,0.7,1.1l-0.5,0.3L156.6,150z M223.4,186.1
		c-0.7-0.2-1.9-0.4-3.4-0.5c-1.5-0.2-2.9-0.3-4.2-0.3c-8,0-15.5-1.9-22.7-5.6c-7.2-3.7-14.9-8.9-23.2-15.6l1.1-0.3
		c0.4,0,0.9,0.2,1.5,0.7c0.6,0.5,1.1,0.7,1.5,0.7l0.8-0.8l-0.5,1.4l1.9,1.1l0.8-0.5c0.4,0.4,0.7,0.7,1.1,1c0.4,0.3,0.7,0.6,1.1,1
		l0.3-0.3l-0.8-1.1v-0.3l0.8,0.5c-0.4-0.4-0.1-0.8,0.8-1.4L178,163h0.5c0.5,0,1.1,0.7,1.6,2.2l0.8-0.8l1.4,0.3l-0.3,1.1l1.6,0.8
		l-1.1-1.1l2.2,1.1l-0.5,0.5l0.3,0.3l0.3-0.3c0.5,0,1,0.4,1.2,1.1s0.4,1.2,0.4,1.4v-0.8l1.1-0.5c0.9,0,1.5,0.5,1.9,1.4l-0.5-0.3
		l-1.1,1.4l2.2-1.1c1.1,0.7,2.1,1.2,3,1.5s1.6,0.6,2.2,1l-0.3,0.8h0.3c0.4,0,0.9,0.2,1.5,0.5c0.6,0.4,1.2,0.5,1.8,0.5l0.5,1.6
		c0.7,0,1.8,0.4,3.1,1.1c1.4,0.7,2.4,1.1,3.1,1.1l-0.8,0.5l0.5,0.3l0.8-0.5c0.2,0.2,0.4,0.5,0.7,1c0.3,0.5,0.6,0.7,1,0.7l1.1-0.3
		l-1.1,1.1v0.5c0.2-0.4,0.5-0.5,0.8-0.4c0.4,0.1,0.5-0.1,0.5-0.7c0.4,0.4,0.7,1.1,1.1,2.2c1.6,0.2,3.5,0.5,5.7,0.8
		c2.2,0.4,4,0.5,5.4,0.5c3.6,0,5.9-1.2,6.8-3.5c0.9,0.5,1.7,0.8,2.4,0.8c0.9,0,2.1-0.2,3.5-0.7c1.4-0.4,2.5-0.7,3.3-0.7l0.8,0.5
		l0.8-0.8l0.3,0.8l0.5-1.6l1.1-0.3l1.6,0.5l1.1-0.3v-1.1l0.3,0.8l1.1-1.1l-0.3,0.8c1.1-0.9,2.5-1.6,4.3-2.2l-0.3-1.1
		c-0.5,0-0.9-0.5-1.1-1.5c-0.2-1-0.5-1.5-1.1-1.5l0.3-1.9l-0.5,0.3l-0.5-2.2l0.3-0.5l0.5,1.4l0.3-1.1c-0.9-0.4-1.7-1.4-2.4-3v-0.3
		h1.1l-0.8-1.1c0.2-0.4,0.3-0.7,0.4-1.1c0.1-0.4,0.4-0.6,1-0.8c0,0.4,0,0.7-0.1,1.1c-0.1,0.4,0,0.8,0.1,1.4l0.3-0.3l0.3-1.1l1.1,0.3
		l0.3,1.4l-0.8,0.5c0.7,0.7,1.3,1.1,1.6,1.1l-1.1-0.8l0.3-0.5h0.3l0.8,1.1c0.4-0.2,0.9-0.6,1.5-1.2c0.6-0.6,1.2-1,1.8-1l-0.3-1.1
		l-0.8,0.3l-1.4,1.9l-0.8-1.6l0.5,0.8c0.5-0.2,1-0.7,1.4-1.6c0.4-0.9,0.7-1.4,1.1-1.6l-0.8-1.1l1.6-1.1l-0.5-0.8V156
		c-0.4,0.5-1,1.2-2,1.9c-1,0.7-1.6,1.5-1.8,2.2c-0.2-0.2-0.5-0.4-0.8-0.7c-0.4-0.3-0.5-0.6-0.5-1l0.8,0.3v-0.8l-1.1,0.5v0.5l0.5,1.4
		c-0.2,0-0.7-0.5-1.6-1.4l-0.8,1.1V159l-1.1,0.8v0.5h0.5l1.1-0.5l0.5,0.3c0,0.5-0.3,0.8-0.8,0.8c-0.5,0-0.8,0.2-0.8,0.5
		c-0.2-0.4-0.5-0.7-1-1.1c-0.5-0.4-0.7-0.7-0.7-1.1h-1.1l-0.8,1.4l0.3-0.8c-0.4,0.2-1,0.4-1.9,0.7c-0.9,0.3-1.5,0.6-1.9,1l-0.3-0.3
		V160l-1.4,1.1h-0.3l0.5-1.1c-0.5,0-0.9,0.3-1,1c-0.1,0.6-0.3,1-0.7,1h-0.3l0.3-1.6l-2.2-0.5c-0.7,0-1.5,0.2-2.2,0.5
		c-0.7-0.9-2-1.4-3.8-1.4h-2.7c-1.3,0-2.2-0.2-2.7-0.5l-0.3,1.6h0.5l0.8,1.4l0.5-0.3l-0.3-1.1h0.5v2.2l-1.9-0.3c0-0.4-0.1-1-0.3-1.9
		c-0.2-0.9-0.5-1.5-1.1-1.9l-0.5,1.4c0,0.5,0.1,1,0.3,1.4c0.2,0.4,0.4,0.7,0.5,1.1l-1.4,0.3l0.8,0.3l-0.3,0.8l-1.4-0.3l0.8-1.1
		l-1.1-0.5c-0.2,0-0.6,0-1.2,0.1c-0.6,0.1-1,0-1-0.4l-0.8,0.8c0.5,0.2,0.4,0.5-0.3,1.1l1.1,0.5l1.1-1.6c0,0.5-0.2,1.4-0.5,2.4
		c0.4,0,0.8-0.1,1.2-0.4c0.4-0.3,0.9-0.4,1.2-0.4h0.3l-0.5,1.9l-0.5-0.3l0.5-1.1c-0.4,0.2-0.8,0.4-1.4,0.7c-0.5,0.3-1,0.4-1.4,0.4
		l1.1,0.5l0.5-0.5c0.4,0.4,0.8,0.9,1.2,1.6c0.5,0.7,1,1.2,1.5,1.4l-1.1,0.5l-0.3-0.5l0.3-0.5l-1.6,0.8l-0.3-0.5l1.4-0.8l-0.3-0.3
		l-1.6,0.8h-0.3c0-0.2,0-0.5-0.1-1c-0.1-0.5-0.4-0.8-1-1l-0.3,0.5l0.3,0.3h0.8c-0.5,0.5-0.8,1.3-0.8,2.2h-0.3c0.4-0.7,0.4-1.2,0-1.4
		c-0.4-0.2-0.5-0.5-0.5-0.8l0.3-0.8l-1.4,1.4l0.3,0.8l0.5-0.8l0.5,0.3c-0.7,1.8-1.1,3.2-1.1,4.1l0.3,1.4l-1.1-0.8
		c0.2-0.4,0.3-1,0.3-1.8c0-0.8,0.1-1.5,0.3-2l-0.8-0.8v0.5l-0.3,2.4l0.3,1.4c-0.5-0.4-0.8-1.4-0.8-3c0-1.6-0.1-2.9-0.3-3.9
		c-0.2-1-0.7-1.5-1.6-1.5l0.3-1.4l0.8,1.1c0.5-0.5,0.8-1.4,0.8-2.7h-0.3l-0.5,0.3l-0.5,0.8H209v-1.6l-0.8,0.8l-0.5-1.4l0.3-0.8
		l1.9,0.5l-0.3,1.4l0.5-1.4l-0.3-0.8c-0.5-0.4-1.2-0.6-2-0.8c-0.8-0.2-1.5-0.4-2-0.5c0.4,1.3,1,2,1.9,2.2l-0.8,0.8l0.5,1.6l-0.8-0.5
		l-0.8,1.4h-0.5V162h0.5l-0.3-0.8l-0.8,1.1c1.1,0.4,1.8,1.4,2.2,3.3l-0.5-0.8l-0.5,0.5l0.8,1.1l-0.3,0.3c0.9,0,1.8,0.5,2.7,1.6
		l-0.5,0.5c0-0.5-0.6-1.1-1.9-1.6l-0.3,0.3v1.1c-0.4-0.5-0.6-1.3-0.7-2.3c-0.1-1-0.2-1.9-0.4-2.6l-1.1,0.5l0.5,0.3l-0.5,0.8l1.4,0.5
		c-0.4,0.2-0.6,0.6-0.8,1.2c-0.2,0.6-0.4,1.1-0.5,1.5l-0.5-0.8l0.5-0.5l-0.5-0.3c-0.5,0-1,0.2-1.4,0.7c-0.4,0.5-0.6,0.8-0.8,1
		l-0.3-0.8c-0.4,0-0.8,0.1-1.2,0.4c-0.5,0.3-0.9,0.4-1.2,0.4h-0.3c0.7-0.5,1.3-1.3,1.6-2.2l-1.6-0.8c0,1.3-0.2,2.2-0.5,2.7l-1.9-0.8
		h-0.5v0.3l1.4,0.8v0.3l-1.6,0.3l0.3,0.3l-0.8,0.5c-0.4,0-0.9-0.2-1.6-0.5c-0.7-0.4-1.4-0.5-1.9-0.5l-0.5-1.6l0.5-0.8l-0.3-0.3
		l-0.8,0.5l-0.3-0.3l1.1-0.8l-1.4-1.1c0.4-0.2,0.7-0.5,1-1.1c0.3-0.5,0.3-0.9,0.1-1.1h1.1v-0.8l-0.3-0.3H190l-0.3-0.8
		c0.5-0.4,0.9-1,1.1-1.9c0.2-0.9,0.4-1.6,0.8-2.2V156l-0.8,1.4l-0.3-0.5l1.1-1.9l1.6,0.8v-0.3l-1.1-0.8h-0.5V153l0.3,1.1l0.5-0.3
		l-0.3-1.1l-1.4,0.3v-0.3l0.5-0.5l1.6-0.3l-0.8-0.3c-0.4,0-0.9,0.2-1.5,0.5c-0.6,0.4-1.2,0.6-1.8,0.8c0.9,0.2,1.8,0.7,2.7,1.6
		l-0.3,0.3l-1.1-0.8H190l-0.5,0.8v0.3l1.4-0.3c0,0.5-0.2,0.9-0.7,1c-0.5,0.1-0.7,0.2-0.7,0.4l-1.1-0.5h-0.5l0.3,1.4l-0.5-0.8v0.8
		H187l-1.4-0.8c0,0.2,0,0.7,0.1,1.6c0.1,0.9-0.4,1.4-1.5,1.4v1.1l1.1,0.8l-1.4,0.3l-1.9-0.3l1.1,1.1v0.3c-0.7-0.2-1.3-0.9-1.6-2.2
		l-0.3,1.1c-0.5-0.9-1.3-1.4-2.2-1.4l1.4-0.8l1.1,0.5V159c0-0.5,0.1-1.1,0.4-1.6c0.3-0.5,0.4-1.1,0.4-1.6l0.3,0.5
		c0-0.2,0-0.7-0.1-1.5c-0.1-0.8,0.2-1.4,1-1.8h-0.3l-0.8,0.8l-0.3-0.3l0.5-0.8l-1.4-0.8l0.8,1.6c0.2,0.4,0.3,0.9,0.3,1.6
		c-0.5-0.9-1.3-1.4-2.2-1.4l-0.8,1.4l-0.8-0.8c-0.2,0-0.5,0.2-0.8,0.5l0.8,1.1l-1.1,0.3l-0.3-0.5l-0.3,1.1l-0.5-1.1l-0.5,0.5
		l1.1,0.8l-0.5,0.3l-1.4-0.5c-0.4,0-0.6,0.3-0.8,0.8c-0.2,0.5-0.5,0.8-1.1,0.8l0.8-1.1h-0.3l-0.8,1.1l0.5,1.1v0.3l-1.6,0.3l0.8,0.3
		l-1.4,0.8l-0.3-0.5l-0.3,0.8c-0.5,0-1-0.4-1.2-1.2c-0.3-0.8-0.6-1.2-1-1.2l0.8-1.1l-0.8-0.5l0.3-0.3l1.4,1.4h1.6v0.5
		c0.5,0,0.9-0.4,1.1-1.1c0.2-0.7,0.4-1.1,0.5-1.1l0.5,0.3l-0.8-1.1l0.3-0.3h0.5l-0.8-0.8l1.1-0.8c-0.7-0.5-0.5-1,0.5-1.4l-0.3-0.5
		l-1.4,0.5l0.3,1.4c-0.2,0-0.4,0.2-0.5,0.5c-0.2,0.4-0.5,0.5-0.8,0.5c0.4-1.4,0.5-2.5,0.3-3.3l-0.8,2.4l0.3,1.9l0.5-0.5l0.3,0.3
		l-0.5,0.5l0.8,0.3l-0.8,1.1c-1.8-0.7-3-1.4-3.5-1.9l-0.5,0.5l-1.1-0.3l0.8-0.8l-0.8-0.8l-0.3,0.5c0-0.9-0.6-1.8-1.9-2.7l-0.3,1.1
		c0,0.4,0.1,0.5,0.3,0.3l-0.5,0.8h-0.3c0-0.5,0.2-1.5,0.5-3l-1.1,1.1l0.3,1.9h-0.8c-0.2-0.5-0.3-1.3-0.3-2.2h-0.8l-0.3,1.1l-0.3-1.1
		l0.3-1.6c-0.9-0.4-1.4-0.8-1.6-1.4l0.3-0.5l-0.8-0.3l-0.5,0.3l0.5,1.1l-1.4-0.8l-0.5,0.3c0-0.4,0.2-0.7,0.7-1
		c0.4-0.3,0.7-0.5,0.7-0.7l-0.3-0.5l-1.4,1.4l-0.5-0.3l0.8-1.4l-0.5-0.5l1.1-1.1l0.5,0.3v-1.4l0.3,0.3c0.4,0,0.7-0.2,1-0.5
		c0.3-0.4,0.6-0.5,1-0.5c2.2-2.7,4.6-5.1,7.3-7.2c2.7-2.1,6.5-4.7,11.4-7.7l6.2-4.1c0.4,0,0.8,0.2,1.2,0.5c0.5,0.4,0.9,0.5,1.2,0.5
		v0.5c0,0.7,0.5,1.6,1.4,2.7c0.9,1.1,1.4,1.9,1.4,2.4l-0.3,0.8c0.4-0.4,0.7-0.4,1,0c0.3,0.4,0.4,0.7,0.4,1.1
		c0.4-0.2,0.8-0.2,1.4-0.1c0.5,0.1,0.8,0.4,0.8,1l0.3-0.3l0.3-0.8h0.3v1.1c0,0.5,0.2,1.1,0.7,1.6c0.4,0.5,0.7,1.1,0.7,1.6l1.1-0.3
		v0.5c0,0.5,0.3,1,1,1.5c0.6,0.5,1,0.9,1.2,1.2h-1.1l0.8,0.5l1.4-0.3c-0.2,0.4,0.2,0.7,1.1,1c0.9,0.3,1.4,0.6,1.4,1l-0.3,0.8
		c0.5-0.4,1-0.6,1.5-0.7c0.4-0.1,0.8-0.1,1-0.1c0,0.4,0.2,0.6,0.5,0.8c0.4,0.2,0.5,0.5,0.5,1.1l0.5-0.5l0.8,0.8c0.4,0,0.7-0.1,1-0.4
		s0.6-0.4,1-0.4l-0.3,0.3c0,0.2,0.4,0.4,1.2,0.7c0.8,0.3,1.5,0.4,2,0.4l1.4,0.5c1.6,0,2.6,0.4,3,1.1c0.9,0.2,2.1,0.4,3.7,0.5
		c1.5,0.2,3.4,0.3,5.6,0.3c4.9,0,9.3-1,13.2-3.1c3.9-2.1,5.8-5.4,5.8-9.9c0-4.3-1.5-7.8-4.6-10.3c-3.1-2.5-6.3-4.7-9.8-6.4
		c-3.4-1.7-5.8-2.9-7.1-3.4c-0.2,0.2-0.5,0.3-0.8,0.3c-0.5,0-1.1-0.4-1.6-1.1c-0.5-0.7-1-1.2-1.4-1.4l-1.1,0.5
		c-0.5,0-1.2-0.2-1.9-0.7c-0.7-0.4-1.4-0.8-1.9-1l0.3-1.1l-1.1-0.5v1.1c-0.7,0-1.5-0.3-2.4-1c-0.9-0.6-1.6-1-2.2-1v-0.3
		c0-0.2-0.6-0.5-1.8-1.1c-1.2-0.5-2-1.1-2.3-1.6l-0.3,0.8l-0.8-1.1v-0.5c-0.4,0.4-0.6,0.5-0.8,0.5c-0.5,0-1.7-0.9-3.5-2.7l-1.1,0.3
		c-1.4,0-2.8-1.1-4.1-3.3l-1.1,0.8c0.2-0.4-0.1-0.8-0.8-1.2c-0.7-0.4-1.1-0.9-1.1-1.2c-5.4-2.9-10.5-6.9-15.1-12
		c-4.6-5.1-8.2-10.5-10.7-16.3l0.8-1.1c-0.4,0-0.9-0.5-1.5-1.5c-0.6-1-1.2-1.6-1.8-1.8v-1.1l1.1-1.4c-0.5-1.4-0.8-2.9-0.8-4.3
		c0-2,0.4-5,1.1-9l0.8,0.3l-0.3-1.1l1.1,0.8l-1.1-1.6l-0.8,1.6h-0.3l2.4-7.9l-0.3-0.5l-0.8,0.5v-0.3c0.5-0.4,1.1-0.9,1.6-1.6
		c0.5-0.7,1-1.3,1.4-1.6l-0.5-0.5l-0.5,0.8v0.3l-0.8-1.1l0.8-0.5l0.3,0.3l-0.3-0.5c0-0.7,0.6-1.4,1.9-1.9v0.8l1.4-0.3
		c-0.4-0.4-0.3-1.1,0.3-2.2v-0.3l-0.5,0.5c0-1.4,0.7-2.9,2.2-4.3l-0.3-0.5c0.2-0.7,0.6-1.5,1.4-2.4s1.1-1.7,1.1-2.4l2.2-0.3v-0.3
		c0-0.4,0.4-1,1.2-1.8c0.8-0.8,1.2-1.4,1.2-1.8l0.5,0.8c1.1-1.6,2.7-3.2,4.8-4.6c2.1-1.4,4.1-2.8,6.1-4.1c2.5-1.3,4.4-2.4,5.7-3.5
		l1.6-0.3V7.9c5.8-1.6,10.8-2.9,15.1-3.7c4.3-0.8,8.5-1.2,12.6-1.2c27.3,0,47.4,10.4,60.3,31.2l-0.5,0.5l-1.9-0.5l0.3,1.4l-1.9-0.3
		l0.5,0.8c-0.5,0.2-1.4,0.3-2.7,0.3L282,37l-0.3,0.5h1.6l0.3-1.4h0.3l0.3,1.1v2.4c0,1.1,0.2,1.8,0.5,2.2l-1.4,0.8l-1.1-0.3l0.8,1.1
		l-0.3,0.3l-1.1-0.3l0.3,1.1c-0.5-0.4-0.9-0.4-1.1,0c-0.2,0.4-0.4,0.5-0.5,0.5l-0.8-0.3l0.3,1.4c-0.4,0.2-0.9,0.5-1.5,0.8
		c-0.6,0.4-1.1,0.5-1.5,0.3c-0.4,0.5-0.9,1.3-1.6,2.2c-0.7,0.9-1.5,1.6-2.2,2.2c-0.7,0.5-1.6,0.8-2.7,0.8l0.5,0.5l-1.1,0.8l-1.1-0.5
		l-1.6,1.9V56l-1.1,0.5l-1.1-0.5l0.3-0.5c-0.5,0.2-0.9,0.7-1.1,1.5c-0.2,0.8-0.5,1.3-0.8,1.5l-0.3-1.1c-0.4,0.9-1,1.7-1.8,2.4
		c-0.8,0.7-1.8,1.1-2.9,1.1c-1.1,0-2-0.5-2.7-1.6l0.3-1.6c-0.7,0.2-1.7-0.8-3-3c-1.3-2.2-2.4-3.3-3.5-3.3c0.2,0,0.3-0.2,0.3-0.5
		c0-0.4-0.2-1-0.7-1.9c-0.5-0.9-0.7-1.5-0.7-1.9h-1.1c-0.4,0-0.9,0-1.6-0.1c-0.7-0.1-1.3,0-1.6,0.4c0-0.4,0.1-0.7,0.3-1.1
		c0.2-0.4,0.2-0.7,0-1.1c-0.2,0.2-0.4,0.5-0.7,1c-0.3,0.5-0.7,0.7-1.2,0.7h-0.3c0.5-0.9,0.1-1.4-1.4-1.4c-0.4,0-0.9,0-1.5,0
		c-0.6,0-1.1-0.1-1.5-0.3c1.4-0.4,2.4-0.4,3-0.3c-0.5-0.2-1.4-0.3-2.4-0.3h-1.6c-1.3,0-2-0.4-2.2-1.1c-0.4,0-0.9,0-1.5,0.1
		c-0.6,0.1-1.1,0-1.5-0.1l-0.5,0.5l-0.5-0.5l-0.5,0.3v0.8h-0.3c0.2-0.7,0.1-1.1-0.3-1.1c-0.4,0-0.6-0.2-0.8-0.5l-3.3,0.3
		c-1.4,0-2.5-0.1-3.3-0.3c-0.2,0.9-1.4,1.6-3.7,2c-2.3,0.5-4.1,1.3-5.4,2.4c-1.4,1.2-2,3.5-2,6.9c0,1.1,0.2,2.5,0.5,4.3
		c3.8,4.2,8.1,7.6,12.9,10.2c4.8,2.6,11,5.5,18.6,8.6c5.8,2.2,10.7,4.3,14.8,6.2c4.1,2,7.9,4.4,11.5,7.3l-0.3-0.5l1.1,0.8l0.5-0.3
		c0.5,1.3,1.3,2.5,2.2,3.8l0.8-0.8l1.1,1.6l0.8-0.3c0.7,1.6,2.4,3.7,4.9,6.2c2.2,1.4,3.7,3.2,4.6,5.2l-0.5,1.1l0.3,0.8l0.5-0.3
		l0.3,1.1l-0.3,0.5H285v-0.3c0-0.4-0.2-0.8-0.7-1.4c-0.5-0.5-0.8-1-1-1.4c0,0.5,0.2,1.2,0.7,1.9c0.4,0.7,0.7,1.3,0.7,1.6l-0.8-0.5
		l-0.8,1.9l0.8,1.1l1.1-0.3c-0.2,0.5-0.2,1.1,0,1.6h0.5l-0.5-1.4c0.5,0.2,1,0.7,1.5,1.6c0.4,0.9,1,1.5,1.5,1.6l0.5-1.1
		c1.6,5.6,2.4,11.5,2.4,17.7c0,10.7-2.8,20.1-8.3,28.4c-5.5,8.2-12.9,14.6-22,19c-9.2,4.4-19.1,6.7-29.7,6.7
		C228.3,186.9,225.7,186.7,223.4,186.1z M159.5,154.6l-0.8-0.8h1.4l-0.8-1.4l1.4,1.4h-0.3l-0.8,1.1V154.6z M160.9,156.7
		c0-0.4-0.1-0.8-0.3-1c0.4,0.4,1.1,0.7,2.2,1.1l-0.8,0.5C161.3,157.3,160.9,157.1,160.9,156.7z M163.3,157.1l0.3-0.8l0.3-0.3
		l0.5,0.8l0.3-0.8l-1.9-0.8c1.6,0,2.4-0.5,2.2-1.4h0.5l-0.8,1.9l0.3,0.5l1.1-0.5l0.5,0.3l-1.1,0.8H165l1.1,1.4l0.8-1.1h0.3l1.4,0.8
		c-0.4,0-0.9,0.2-1.6,0.5l-0.3,0.5C165.5,157.9,164.4,157.2,163.3,157.1z M167.7,162.2c0.4-0.4,0.4-0.6,0.1-0.8
		c-0.3-0.2-0.6-0.3-1-0.3v-2.7l0.8,0.8l-0.3,1.1h0.5l0.3-1.1h0.3v0.3c0,0.5,0.2,1.2,0.7,2c0.5,0.8,0.7,1.5,0.7,2v0.5L167.7,162.2z
		 M169.9,154.9l0.3,0.3v0.8l0.8-0.8l-0.3-0.5l-0.5,0.3l-1.1-0.8v1.4l0.5,0.8L169.9,154.9z M170.1,162h0.3c0.4,0,0.6,0.2,0.8,0.5
		c0.2,0.4,0.4,0.5,0.5,0.5l-0.5,0.3L170.1,162z M176.1,161.1l0.3-0.5l0.5,0.3c0-0.5-0.2-0.9-0.7-1.1c-0.5-0.2-0.8-0.4-1-0.5
		l-1.1,0.8l-0.3-1.4l0.3-0.5l0.5,1.1l3.3-0.8l-0.8,1.6c0,0.7,0.1,1.3,0.3,1.8c0.2,0.5,0.4,0.9,0.5,1.2
		C177.3,162,176.7,161.3,176.1,161.1z M175.8,163.3V163h1.1l0.3,0.3v0.8L175.8,163.3z M178.6,161.4l0.5-1.1l0.5,0.8h-0.5l1.1,1.4
		L178.6,161.4z M184,154.1l0.5,0.8h0.3c0-0.5-0.2-1.1-0.7-1.8c-0.5-0.6-0.8-1.1-1-1.5l1.1,0.8h0.3l0.8-1.4v-0.3l-0.8-0.3h-0.8
		l0.8,0.5l-0.5,0.3l-1.4-0.3v0.5c0,0.4,0.3,0.7,0.8,1.1c0.5,0.4,0.8,0.7,0.8,1.1l-0.8-0.3l0.3,1.4L184,154.1z M183.4,162.2l0.3-0.5
		l1.1,0.3v0.3l0.5,0.3h-0.5l-0.5,0.5l0.3,1.4L183.4,162.2z M189.4,159l-1.1-0.3l0.8-0.5l0.5,1.1v0.5L189.4,159z M197,168.5l1.4,0.3
		v0.8l-0.5-0.3l-1.6,0.3L197,168.5z M203.8,165.2l-0.5-0.8c-1.6-1.1-2.8-1.6-3.5-1.6l-0.8,0.5l-0.5-0.8l-0.3,1.1h0.5
		c0.4,0,0.6,0.2,0.8,0.7c0.2,0.5,0.4,0.8,0.5,1l0.5-0.8l-0.5-0.8v-0.3h0.5c0.2,0.5,0.6,1.1,1.4,1.6c0.7,0.5,1.3,1,1.6,1.4
		L203.8,165.2z M198.9,171.7v-1.4l0.8-1.1h0.3l1.4,1.6l-0.3,0.5l-0.8-1.1l-0.8,0.5h-0.3l1.1,0.8L200,172L198.9,171.7z M201.4,167.1
		c0-0.4-0.1-0.7-0.4-1c-0.3-0.3-0.5-0.5-0.7-0.7v1.6H201.4z M201.4,28.3h0.3l0.3-1.4l-0.5-0.5V28l-0.5,0.5l0.3,0.3L201.4,28.3z
		 M202.2,162.2c0-0.4,0.1-0.5,0.4-0.4c0.3,0.1,0.5,0.2,0.7,0.4l0.3-0.3L203,160l-0.3,0.3v1.1l-0.8,0.8H202.2z M210.2,43.4
		c1.7-0.3,2.9-0.8,3.4-1.5l-0.5,0.8h1.6l-0.5,0.5l0.3,0.8h0.3c0.2-0.4,1-0.7,2.4-1.1c1.4-0.4,2.4-0.8,3-1.4c-0.2,0.4-0.4,0.7-0.5,1
		c-0.2,0.3-0.3,0.7-0.3,1.2l2.2-1.9h-1.1l1.1-1.1l0.3,0.8l0.8-0.8v1.9c0-1.6,0.9-2.4,2.7-2.4l1.1-0.5l-1.1-0.3v-0.8l1.4-0.3l1.6,0.8
		v-0.3c-0.4,0-0.5-0.2-0.4-0.5c0.1-0.4,0.2-0.6,0.4-0.8c0.4-0.2,1.2-0.4,2.4-0.8c1.3-0.4,1.9-0.8,1.9-1.4c0.5,0.2,1.3,0.3,2.3,0.3
		s1.6,0.3,1.8,0.8h1.1c0.2-0.7,1.4-1.3,3.5-1.6c2.2-0.4,3.5-0.7,4.1-1.1l1.4,1.4v0.3h1.6c1.1,0,1.8,0.3,2.2,0.8l-1.1,0.5
		c0.7,0,1.4,0.3,2,0.8s1,0.9,1.2,1.1l0.8-0.8l-1.1-0.5v-1.1c0.2,0.2,0.5,0.5,1,0.8c0.5,0.4,0.7,0.9,0.7,1.6l0.5-0.8l-0.5-1.4
		l0.8,0.3l0.3-1.9l-0.3-0.5l-0.3,0.3l-2.2-1.4l-0.5,0.3l-0.5-0.8c-0.2,0.4-0.5,0.5-1.1,0.3c-0.5-0.2-0.9-0.4-1.1-0.5l1.6-0.5
		l0.5,0.3l-0.5-1.1l-1.6,1.1l0.5-1.1v-0.5l-1.6-0.5l-0.8,0.5v0.8l-1.1-0.8l-0.5,0.5l-0.3-1.1l0.8-0.5c-1.1,0-1.6-0.4-1.6-1.4
		c0.2,0.2,0.7,0.4,1.5,0.5c0.8,0.2,1.3,0.5,1.5,0.8c1.3,0,1.9-0.4,1.9-1.1c-0.7,0-1.8-0.4-3.3-1.1c2.3,0.4,3.9,0.9,4.6,1.6l-1.9,1.1
		l0.3,0.3c1.8-0.2,3.7,0.2,5.6,1.2c1.9,1,3.3,1.7,4.2,2v-0.3l-1.1-1.4v-0.3l0.8,0.5c-0.4-1.1-0.7-1.8-1.1-2.2l0.3-0.3l0.8-0.3
		l-0.5-0.3l-1.4,1.1c0-0.2,0-0.5,0.1-1s0-0.9-0.4-1.2c0.2-0.2,0.6-0.3,1.2-0.4c0.6-0.1,1-0.2,1.2-0.4l-0.5-0.5l0.5-0.3l-1.1-0.5
		l-0.8,0.5l-0.5-1.6c0.2,0.2,0.3,0,0.4-0.4c0.1-0.4,0.3-0.7,0.7-0.7c0.9,0.4,1.4,0.8,1.6,1.4l-0.5,0.3l0.5,0.8l0.8-0.8
		c-0.2,0.2-0.3,0.5-0.3,0.8c0,0.4,0.2,0.6,0.5,0.8l0.5-0.8c-0.2-0.4-0.4-0.7-0.5-1.1c-0.2-0.4-0.3-0.8-0.3-1.4
		c0.2,0.4,0.5,0.7,1.1,1c0.5,0.3,0.9,0.5,1.1,0.7h1.9l-0.3-0.5l-0.5,0.5c-0.4,0-0.7-0.2-1.1-0.5c-0.4-0.4-0.6-0.6-0.8-0.8l-0.3,0.3
		l0.3-1.1h-0.3l-1.4-0.5c0.4,0,0.8-0.1,1.2-0.4c0.4-0.3,0.9-0.5,1.2-0.7c-0.5-0.4-1.3-0.9-2.2-1.6c-0.9-0.7-1.7-1.1-2.4-1.1
		l-1.1,0.3l0.5-1.1c-1.1,0-1.8-0.2-2.2-0.5c0.2-1.4-0.4-2.5-1.6-3.1c-1.3-0.6-2.6-1.1-4.1-1.4c-1.5-0.3-2.4-0.5-3-0.7l-1.6,1.9
		c0-0.5,0.4-1.2,1.1-1.9c-0.4,0-1,0.1-2,0.3c-1,0.2-1.8-0.1-2.3-0.8l-0.5,1.4v-1.6l-1.4,0.8v-1.6c-1.1,0-1.8,0.1-2.2,0.3l-1.1-0.5
		l-1.4,1.4c-0.2,0-0.3-0.2-0.3-0.5l-1.4,0.5l-0.3,0.8L231,12l0.5-0.8l-2.4,0.5l0.3,0.8c-1.6-0.4-2.6-0.1-3,0.8v-1.1l-0.8,1.4
		l-1.4-0.5c-0.5,0-1.5,0.2-3,0.5l0.5,0.3l-0.5,1.4h-0.8l-1.1-0.5h1.6v-0.5l-0.5-0.5l-0.3,0.8l-1.9,0.3l0.8,0.8l-0.5-0.3
		c-0.7,0-1.4,0.4-2.2,1.1l0.8-0.8l-0.3-0.3c-0.4,0.2-0.8,0.5-1.4,1c-0.5,0.5-1.1,0.7-1.6,0.7l-0.8-0.3c0,0.7-0.4,1.3-1.2,1.6
		c-0.8,0.4-1.2,0.9-1.2,1.6l-1.1-0.8l-0.3,0.8c-2.5,1.3-4.1,3-4.6,5.2h-0.5l0.3,0.3c0,0.2-0.3,0.5-1,1c-0.6,0.5-1,0.9-1,1.2v0.3h0.8
		l-1.1,0.3c0,0.2,0.1,0.5,0.3,0.8c0.2,0.4,0.2,0.8,0,1.4h0.3l0.8-1.4l0.8,1.4l0.8-0.3V31l0.5-1.1v0.3c0,0.4,0.2,0.8,0.7,1.2
		c0.5,0.5,0.8,0.9,1,1.2l0.3-1.1v1.9h1.1l-0.3,0.8l-1.6-1.1c0,0.2,0.3,0.8,0.8,1.9c-0.4-0.2-0.6,0-0.8,0.7c-0.2,0.6-0.3,1.1-0.3,1.5
		l0.8-0.8v-1.1l1.1,0.3l0.3-0.5l-0.3,1.4l-0.8-0.8c0,0.9,0.2,1.7,0.5,2.4l-0.3,0.8l-1.1-1.6v0.8l-0.5,0.3l-0.5-0.5
		c0.2,0.5,0.5,1.2,0.8,2c0.4,0.8,0.5,1.5,0.5,2l-0.3,0.5l-1.1-2.2l-0.5,0.5l-0.5-0.3v0.3l1.6,0.8h-1.6v0.8l0.5,1.1
		c0-0.2,0.1-0.3,0.3-0.3c0.5,0.4,1,0.8,1.4,1.4C207.3,44.1,208.5,43.7,210.2,43.4z M202.7,172l1.4-1.1h-1.4l0.8-0.5l0.8,0.3
		l-0.3,1.9L202.7,172z M203.5,169.6h0.8l0.8-1.1l0.3,0.5l-1.4,0.8L203.5,169.6z M206.5,32.9l-1.1-1.4l-0.3,0.5l0.8,0.3l0.3,1.1
		L206.5,32.9z M205.7,41.9l1.1,0.5l-0.3,0.5L205.7,41.9z M206.5,163h0.5l-0.5-1.4l0.8-0.3l-0.3,0.5l1.1,1.1h0.3l-0.8,0.5l1.9,0.8
		l-0.5,1.4l-0.8-0.3l0.3,0.3l-0.8,0.5C207.6,164.8,207.3,163.8,206.5,163z M210.6,157.1h-0.3c-0.4,0-1.3-0.4-2.7-1.1v0.3
		c0,0.9,0.7,1.4,2.2,1.4L210.6,157.1z M208.7,37l0.3-0.5c0,0.4,0.1,0.8,0.3,1.2c0.2,0.5,0.4,0.7,0.5,0.7h0.3l-0.5,0.5L208.7,37z
		 M209.5,29.9l0.3-0.3l0.8,0.8L209.5,29.9z M210.6,30.5l0.3,0.5v0.5l-0.3-0.5l-1.1,0.5L210.6,30.5z M212.5,164.1
		c0.2-0.4,0.3-0.7,0.3-1.1l-0.3-0.5l-0.8,1.9l0.8,0.8C212.3,164.8,212.3,164.5,212.5,164.1z M212.8,31.3h-0.3l-0.3-0.5l0.5-1.9h0.3
		l0.5,0.5l-0.3,1.6h0.3l0.3,1.4L212.8,31.3z M214.4,170.4c-0.2-0.5-0.5-0.7-0.8-0.5l-0.3-0.3l0.3-0.3l1.4,0.5l0.5-0.5l-0.5-1.1h0.3
		l1.1,2.2c-0.4,0.2-0.9,0.6-1.6,1.4C214.7,171.4,214.6,170.9,214.4,170.4z M218.2,160.9v-0.3l-0.5-1.1l0.5,0.3v-1.9h-0.5
		c-0.4,0-0.7,0.2-1,0.5s-0.6,0.6-1,0.8l-0.3-0.5l0.8-0.8l-1.1-0.5l-0.3,1.9l-0.5-0.8l0.5-1.1h-0.8l-0.3-0.3v0.5
		c0,1.5,0.5,2.2,1.6,2.2l-0.3,0.5h0.3l0.8-1.1v0.5l-0.3,1.1H218.2z M216.8,38.6l1.1-1.4c0.2,0.2,0.4,0.1,0.7-0.3
		c0.3-0.4,0.4-0.6,0.4-0.8l0.8,0.5h-0.5l-0.5,1.1h0.5l0.3,0.3l-2.2,1.4L216.8,38.6z M218.2,24l-1.1,0.3l0.8-1.4l-0.5-0.3h1.4
		l-0.8,0.5l0.8,1.6L218.2,24z M217.4,26.7l0.5-0.8l1.1-0.5l0.8,1.1l-0.3,0.3l-0.3-0.5l-0.8,1.4l0.3,0.8
		C217.8,28.3,217.4,27.8,217.4,26.7z M224.3,108.2c0.1-0.7,0.1-1.3,0.1-1.6l-1.4-0.5l1.1,1.6l-1.1,0.8l0.3,0.3h-0.8l-0.3-0.3
		c0.4-0.2,0.5-0.6,0.5-1.4s0.1-1.2,0.3-1.4c-0.7-0.2-1.7-0.5-2.9-1c-1.2-0.4-2.1-0.8-2.9-1c1.3,2.5,2.6,3.9,4.1,4.1l1.1,1.6h0.3
		l0.8,1.1C224,109.7,224.2,108.9,224.3,108.2z M223.9,169.6l0.3-1.4c-0.2,0-0.7,0-1.6,0.1c-0.9,0.1-1.4-0.1-1.4-0.7l-0.5,0.8
		l-0.3-0.8l-0.3,0.3l-0.3,1.4h-0.5c0.2-0.2,0.3-0.5,0.3-0.8c0-0.4-0.2-0.7-0.5-1.1c-0.4-0.4-0.6-0.7-0.8-1.1
		c0.2,0.2,0.8,0.3,1.8,0.3c1,0,1.5,0.4,1.5,1.1c0.4-0.2,0.8-0.2,1.2-0.1c0.5,0.1,0.9,0.1,1.2,0.1l1.4-0.3l0.3,1.4l-0.3-1.1l-0.8,0.5
		v2.2L223.9,169.6z M219.8,29.4l0.3-0.5l-0.3-0.5l0.3-0.3l0.8,1.9h-1.1V29.4z M220.1,25.9l0.8-1.1c0.2,0.4,0.6,0.5,1.2,0.4
		c0.6-0.1,1.1-0.1,1.5-0.1v1.1h-0.3L222,27l-0.5-0.8h-0.3l0.3,0.3l-0.5,0.5l0.3,1.6L220.1,25.9z M220.1,165.8l0.8-1.1l-0.5-1.1
		l1.1,0.5l0.8-0.8l0.3,0.3l-0.3,1.9h0.8l-0.3,0.5l-1.4-0.5l0.5-1.1c-0.5,0-0.8,0.6-0.8,1.9L220.1,165.8z M223.1,27l1.6-1.4l-0.3-0.3
		c0.4,0,0.9,0,1.6-0.1c0.7-0.1,1.2-0.5,1.4-1.2l0.5,1.1c0,0.7,0.2,1.1,0.5,1.1l-2.2,0.3v-0.5l-1.1,1.1l-0.8-0.5l-1.1,0.8L223.1,27z
		 M226.1,168.2l1.1-0.5c-1.1-1.1-1.6-2.1-1.6-3h0.3c0,0.2,0.1,0.6,0.4,1.4s0.7,1.1,1.2,1.1l-0.3,1.4L226.1,168.2z M226.4,169.3h-0.3
		l1.1-0.8c-0.2,0.2,0,0.8,0.5,1.9l-0.5,0.5L226.4,169.3z M241.8,116.9l-0.3,1.1c0,0.5,0.1,1.2,0.3,1.9s0.2,1.4,0,1.9l-0.8-0.5
		l0.5-1.4c0-0.4-0.1-0.8-0.3-1.4c-0.2-0.5-0.2-1,0-1.4l-1.4-0.8c0,0.4,0.1,0.8,0.3,1.4c0.2,0.5,0.2,1,0,1.4c-0.2-0.2-0.4,0-0.7,0.4
		c-0.3,0.5-0.4,0.9-0.4,1.2l-1.1-1.1v-1.4c-0.2-0.2-0.3-0.6-0.3-1.4h-0.3l-0.8,0.5c-0.2-0.5-0.5-1-1-1.4c-0.5-0.4-0.8-0.7-1-1.1
		l1.4,0.8c-0.2-0.5,0-0.9,0.4-1.1c0.4-0.2,0.7-0.4,0.7-0.8l-0.5-0.5l0.3-0.5h0.3c-0.5-0.4-1.5-0.5-2.7-0.5v-0.5l0.5,0.3l-1.4-1.4
		c-0.2,0-0.3,0.2-0.3,0.5l-1.4-0.5l0.5-0.8l-3.8-1.1v0.8l-0.3-1.1l-1.1,0.8l0.8,0.5l-0.8,0.3l-1.1-0.3c0.4,0.4,0.6,0.9,0.7,1.5
		c0.1,0.6,0.2,1.1,0.4,1.5c0-0.4,0.2-0.4,0.5-0.3c0.4,0.2,0.5,0.4,0.5,0.5l0.5-1.1l-0.3-0.8l0.5,1.1l-0.5,1.9
		c0.5,0.2,1.2,0.7,1.9,1.6c0.7,0.9,1.4,1.4,1.9,1.6c-0.5-0.5-0.6-0.9-0.1-1.1c0.4-0.2,0.8-0.4,1-0.5l-0.8-1.1v-0.5l1.4-1.1l0.8,1.1
		v0.3c-0.9-0.5-1.5-0.4-1.9,0.5l0.8,0.8l-0.5,1.9l0.5,0.8l0.3-1.1l1.1,1.6h0.5c-0.2-0.4-0.5-0.8-0.8-1.2c-0.4-0.4-0.6-1-0.8-1.8
		l1.6,0.8l-0.8,0.3l0.5,0.5l0.5-0.5c0.2,0.4,0.4,0.9,0.5,1.5c0.2,0.6,0.4,1.1,0.5,1.5c0-0.2,0.1-0.3,0.3-0.3c0.2,0,0.6,0.5,1.2,1.6
		c0.6,1.1,1.1,1.6,1.5,1.6c0-0.5-0.4-1.2-1.1-1.9c1.1,0.4,1.6,0.8,1.6,1.4l-0.3,0.8c1.1-0.4,1.9-0.3,2.4,0.3l-0.5-0.3
		c0,0.5,0.4,1.2,1.1,1.9l1.4-0.5c-0.2,0.2-0.3,0.5-0.3,0.8c0,0.9,0.4,1.5,1.1,1.9C244.6,122.8,243.5,119.2,241.8,116.9z M228.3,35.1
		h1.6v0.3l-1.4,0.8L228.3,35.1z M228.8,26.1l0.8-1.1l0.3,1.4h-1.1V26.1z M231,25.9l-0.3-1.1h1.6l-1.4,0.3l0.8,1.1v0.3h-1.4L231,25.9
		z M230.7,170.6l1.4,0.5c0.5,0,1.4-0.2,2.4-0.5v1.1h-1.1v0.3h-3L230.7,170.6z M234,153l-0.5-1.1h-1.4l-0.5,1.6H231l0.8,0.5
		C232.2,153.7,232.9,153.4,234,153z M232.6,19.9l-0.8-0.3l1.4-0.5h0.8v1.4c-0.2-0.2-0.5-0.3-0.8-0.4c-0.4-0.1-0.5,0-0.5,0.4V19.9z
		 M235.9,152.7v-0.3l-1.1-0.8l-0.8,0.3v0.3l0.5,0.5H235.9z M236.8,169.4c1-0.1,1.7-0.1,2-0.1c-1.3,0.7-2.6,1.3-4.1,1.6
		C235.1,170,235.8,169.5,236.8,169.4z M236.5,20.3c-0.6-0.1-1-0.5-1-1.2h2.2v1.4C237.6,20.4,237.2,20.4,236.5,20.3z M236.7,21h0.5
		l1.1,0.8h-1.1L236.7,21z M236.7,25.9l0.5-1.1c0.7,0.7,1.4,1.1,1.9,1.1v0.3h-0.3L236.7,25.9z M238,27.8c-0.7-0.2-1.2-0.7-1.4-1.6
		h0.3l1.1,1.1l0.3-0.8c0.7,0,1.3,0.6,1.6,1.9C239.4,28.1,238.8,28,238,27.8z M237,18.8V18l0.8-0.3l0.5,1.4L237,18.8z M237.2,167.7
		v-1.1h1.4l0.8,0.5l-1.1,0.3l0.5,0.3l-0.3,0.3L237.2,167.7z M238.9,116.9V115h-0.3l-1.1,1.1l0.8,1.1L238.9,116.9z M241.3,25.9
		l0.5-1.1l-0.5-1.1H241v0.5h-0.3v-1.1l-1.6,0.8l-0.3-1.4l-0.5,0.3l0.8-0.8v-1.4l0.8,0.5l2.2-0.3l1.1,0.8c0,0.5-0.4,0.8-1.1,0.8
		c-0.5,0-0.9,0.1-1.1,0.3l0.5,0.3l1.4-0.3l-0.5,1.1l1.4-1.1h0.3l0.3,0.8l-0.5,0.5h-1.4l0.5,0.5v1.1h0.3l-0.3,0.5L241.3,25.9z
		 M238.3,24.5l1.6-0.3l0.3,1.1l0.5-0.3l0.3,0.3l-0.5,0.3L238.3,24.5z M241.3,19.1L241,18l0.8,1.6l-1.6,0.3L241.3,19.1z M242.1,28.6
		c0-0.5-0.3-1-0.8-1.4c-0.5-0.4-0.9-0.7-1.1-1.1c0.9,0.4,2.3,0.7,4.1,1.1c-0.4,0.2-0.7,0.6-1,1.2c-0.3,0.6-0.7,1-1.2,1V28.6z
		 M241,29.9h-0.3l0.5-0.5l1.6,0.8l-0.5,0.3L241,29.9z M243.2,167.5c-0.5-0.1-0.9-0.2-1.1-0.4v-0.5c0-0.5,0.4-1.2,1.1-1.9l0.3,1.1
		l0.8-0.3l0.3,1.9l-0.5,1.1C244,167.9,243.7,167.6,243.2,167.5z M242.9,122.3l0.3-1.1c0.4,1.1,0.5,1.8,0.5,2.2l0.5-0.3l-0.3,1.4
		C243.3,123.9,242.9,123.2,242.9,122.3z M245.4,38.6l-1.1-0.5l0.8,0.8l-0.5,0.3l-1.1-0.5l0.8,1.1L245.4,38.6z M245.4,121.2l0.3-1.4
		l-0.3-0.5c-0.7,0-1.1,0.5-1.1,1.6v0.3H245.4z M246.7,165.5l-0.3-1.9l-0.5,1.4l0.5,0.8L246.7,165.5z M247.3,36.5v-0.8l-1.1,0.5
		l0.5,0.3l0.3,1.4L247.3,36.5z M246.7,24l0.3-0.3l0.3,0.8l-0.5,1.9V24z M249.2,38.9v-1.1l-0.8,0.5h-1.1v0.3l1.4,0.3H249.2z
		 M248.6,31h0.5c-0.4,0.9-0.9,1.4-1.6,1.4L248.6,31z M248.4,121.2c0-0.2-0.3-0.8-0.8-1.9v1.1l0.8,1.1V121.2z M247.8,162.2l-0.3-1.4
		h0.8l0.8-0.8h0.3l-0.3,1.9l-1.1,0.3l-0.3,0.3V162.2z M249.2,15.6c-0.5-0.2-0.8-0.5-0.8-0.8c1.1,0.4,1.8,0.7,2.2,1.1
		C250.2,15.8,249.7,15.7,249.2,15.6z M248.4,24l0.8,1.1v-0.8l0.5,0.5l-0.5,0.5h-0.5L248.4,24z M253.5,165.8l-0.5-0.3v-0.8h-0.3
		c-0.2,0.2-0.4,0.3-0.7,0.4c-0.3,0.1-0.4,0-0.4-0.4l1.1-0.5c-0.4,0-0.7,0.1-1.1,0.4c-0.4,0.3-0.7,0.5-1.1,0.7c0,1.3-0.4,2-1.1,2.2
		l0.3-1.1l-1.4,0.8c0.2,0.2,0.5,0.5,1.1,1c0.5,0.5,0.9,1,1.1,1.8C251.1,168.9,252.1,167.6,253.5,165.8z M249.7,169.8l-0.8-1.1h-0.5
		v0.3c0,0.2,0.2,0.4,0.5,0.7c0.4,0.3,0.5,0.7,0.5,1.2v0.3L249.7,169.8z M251.6,173.2c0.5-1,1.2-1.5,1.9-1.5l0.8-2.2l-0.8-0.8
		c0,0.9-0.3,1.6-0.8,2.2l-0.3-0.5l-0.5,0.5c0.5-1.3,0.4-2-0.3-2.2v0.3c0,0.4-0.2,0.7-0.5,1.1c-0.4,0.4-0.5,0.8-0.5,1.4
		c-0.4-0.4-0.7-0.4-1.1,0c-0.4,0.4-0.6,0.5-0.8,0.5c0.2,0.4,0.3,0.8,0.4,1.4c0.1,0.5,0.2,1,0.4,1.4
		C250.3,174.7,251.1,174.2,251.6,173.2z M249.7,22.9l0.5-0.8l0.3,0.8l0.8,0.3l-0.8,0.5L249.7,22.9z M249.7,35.1l0.5-1.6h0.5
		l-0.5,0.8l1.1,0.8l-0.3,0.3L249.7,35.1z M252.4,38.9c-0.7,0-1.4,0.4-2.2,1.1C251,40,251.7,39.6,252.4,38.9z M253,150.8l-0.5-1.4
		l-1.9,1.4l0.3,0.3L253,150.8z M250.8,26.1l0.5-0.8l0.5,1.6L250.8,26.1z M251.9,20.7l0.8-0.8l1.4,1.4h-0.3c-0.2-0.2-0.5-0.3-0.8-0.3
		c-0.4,0-0.5,0.2-0.5,0.5L251.9,20.7z M252.7,27.5l-0.8,0.5c0.5-0.5,0.8-1.3,0.8-2.2l0.3,0.3V27l0.5-0.8v-1.1c0.2,0.2,0.6,0.5,1.2,1
		c0.6,0.5,1,1,1,1.8v1.1l-0.8-0.5l-0.5,0.5L252.7,27.5z M251.9,33.5c0.4,0.4,0.5,0.7,0.5,1.1L251.9,33.5z M254.6,159.8V159l-0.3-0.5
		l-0.8,0.3l0.5-1.9c0,0.4,0.1,0.7,0.3,1c0.2,0.3,0.5,0.4,0.8,0.4h0.3c-0.5-0.5-0.8-1.6-0.8-3.3h-1.1l0.8-1.1l-0.5-0.3l-1.4,1.1v1.9
		l0.3,0.5l0.3-0.3l-0.5,2.2c0.4-0.2,0.7-0.1,1.1,0.3c0.4,0.4,0.6,0.5,0.8,0.5H254.6z M252.7,23.2l2.2-1.1v0.3l-0.8,0.5
		c-0.7,0-1.1,0.3-1.1,0.8L252.7,23.2z M253,19.6l1.1-0.3l1.6,0.5l-0.5,0.3L253,19.6z M253.8,30.5l-0.3-0.8h0.3
		c1.3,0.9,2.3,1.4,3,1.4l-0.8,0.3C255.1,31.3,254.3,31,253.8,30.5z M258.4,165.2l-0.5-1.1h0.5l0.5,0.5l2.4-5.7
		c1.3-2.5,2.3-4.9,3-7.1c-0.5,0-0.9,0.4-1,1.1c-0.1,0.7-0.2,1.1-0.4,1.1v-1.4l-0.8,0.3c0,0.4,0.1,0.7,0.4,1.1
		c0.3,0.4,0.4,0.7,0.4,1.1l-1.1,0.5v-1.1c0-1.4-0.3-2.2-0.8-2.2c0,0.7-0.5,1.8-1.5,3.3c-1,1.5-1.5,2.6-1.5,3.5l-0.3,0.5
		c0.4-0.2,0.7-0.1,1.1,0.1c0.4,0.3,0.5,0.6,0.5,1l-0.5,1.4l-0.5-0.5l-0.5,0.3c0-0.4-0.3-1.1-0.8-2.2l-0.5,1.6l-0.5-0.5l-0.5,0.8
		l0.3,0.8l-0.8-0.3l-0.3,0.8l-0.8,0.3l-0.3,1.9l0.3,0.3c0.9-0.5,1.6-0.5,2.2,0c0-0.7,0.2-1.8,0.5-3.3l1.1-0.3
		c-0.4,1.8-0.3,3.1,0.3,3.8L258.4,165.2z M254.1,24.2v-0.5l0.8-0.5l0.5,1.6c-0.2,0-0.5,0.2-0.8,0.5L254.1,24.2z M254.1,163.3
		l0.8,0.8l0.5-0.5l0.3,0.5l-0.8,0.5L254.1,163.3z M255.7,23.2h0.8l0.3,0.5l-1.1,0.8V23.2z M256.5,154.1l0.5-2.2l-0.5-0.8
		c0,0.4-0.1,0.8-0.3,1.2c-0.2,0.5-0.3,0.9-0.3,1.2l0.5,1.1V154.1z M257.1,147.3v0.5l-0.5-0.3v0.3l1.1,0.8L257.1,147.3z M257.9,154.9
		l0.5,0.5l-0.3-1.6h-0.3c0,0.4-0.2,0.8-0.7,1.2c-0.5,0.5-0.7,0.9-0.7,1.2l0.3,0.5L257.9,154.9z M257.1,23.2l-0.3-0.5l0.5-0.3
		l1.4,1.4L257.1,23.2z M260,27.8l0.3,1.1l0.3-0.8l-1.4-1.6c0.4,0.5,0.3,1-0.3,1.2s-0.8,0.6-0.8,1v0.3l0.8,0.3L260,27.8z M259.8,153
		l0.3-0.3l-1.4-1.1v0.3l0.3,1.1H259.8z M259.5,154.6l-0.5-1.1l-0.3,1.4l0.5,0.3L259.5,154.6z M260.9,148.1l-0.5-1.6
		c-0.4,0.2-0.6,0.7-0.7,1.5c-0.1,0.8-0.2,1.3-0.4,1.5H259c0.4,0,0.6,0.3,0.8,1c0.2,0.6,0.4,1,0.5,1.2
		C260.7,150.2,260.9,149,260.9,148.1z M260.3,156.2l0.5-1.4l0.5,1.1l0.5,0.3l-0.5,1.6L260.3,156.2z M268.2,56l1.6-0.8h0.8
		c0,0.4-0.4,0.6-1.2,0.7c-0.8,0.1-1.2,0.2-1.2,0.4V56z M276.6,32.4l-1.6-0.3l-1.1,0.3l-0.5-1.6l-0.5,0.5v0.8l1.1,0.5
		c0.2,0,0.5,0,0.8-0.1c0.4-0.1,0.6,0.1,0.8,0.7L276.6,32.4z M278.2,31.6l0.3-1.1l-0.8-1.1l-0.8,0.8l1.1,0.3l-1.1,0.8l1.1,0.5
		L278.2,31.6z M280.9,35.4c0-0.4,0.3-0.6,0.8-0.7c0.5-0.1,1-0.2,1.4-0.4l0.3,1.1c-0.2-0.4-0.1-0.7,0.3-1.1c0.4-0.4,0.5-0.6,0.5-0.8
		h-0.8l0.8-1.1h-0.3c-0.4,0.5-0.7,0.5-1.1-0.1c-0.4-0.6-0.5-1-0.5-1.2v0.5c0,0.4,0.1,0.7,0.4,1.1c0.3,0.4,0.4,0.7,0.4,1.1l-1.1,0.5
		l-0.8-0.8l0.5-0.3l0.5,0.3l-1.4-1.4l-0.3,1.6l-1.9-1.6v0.3l-0.3-0.5v0.3l0.5,1.1l-1.4-0.5l-0.3,1.4l0.3,0.5l0.5-1.1
		c0.4,0,0.7,0.1,1.1,0.4c0.4,0.3,0.7,0.4,1.1,0.4l0.5-0.5l0.3,0.8l-1.1,0.8l1.1,0.8C281,36,280.9,35.7,280.9,35.4z M280.9,39.7v-1.4
		c-0.7,0.2-1.1,0-1.1-0.7c0-0.6-0.1-1-0.3-1c0,0.5-0.1,0.6-0.4,0.3c-0.3-0.4-0.4-0.7-0.4-1.1l-0.3,0.5c0.9,1.3,1.6,2.1,2.2,2.4V40
		L280.9,39.7z M281.2,31l0.5,0.5c-0.2-0.2-0.3-0.4-0.3-0.7c0-0.3,0.1-0.5,0.3-0.7l-1.4-0.8l-0.3,0.5l0.8,1.1v0.5L281.2,31z
		 M283.9,109.8l-0.8-1.4l-0.3,0.3c0.4,0,0.5,0.2,0.4,0.7c-0.1,0.5-0.2,0.8-0.4,1l0.3,0.3L283.9,109.8z"/>
	<path class="st0" d="M316,155.7h2.2c-0.2-0.4-0.3-0.9-0.3-1.6c0-0.9,0.5-1.5,1.6-1.9l-0.3-0.3h-0.8c-0.5,1.8-1.7,3-3.5,3.5
		c0.4-1.3,1.1-2.2,2.2-2.7l-1.1-0.3l-1.9,0.3l1.4-1.4l-0.3-0.8l-1.4,0.5c0.9-1.4,2-2.5,3.3-3.3l-0.8-0.5l-1.9,1.4l-0.3-0.3
		c0.2-0.4,0.5-0.7,1-1.1c0.4-0.4,0.8-0.7,1-1.1l-0.8-0.3l-1.1,1.1v-1.4c0-2,0.4-3.3,1.1-3.8l-2.2-2.4l0.5-6.2c0-2.7,0.1-4.9,0.4-6.7
		c0.3-1.7,1-3.3,2-4.8c5.2-2.5,13.3-6,24.2-10.3c13.4-5.2,24.4-10,32.9-14.4c-0.7-0.2-1.5-0.6-2.4-1.2c-0.9-0.6-1.7-1-2.4-1.2v0.3
		h-0.5c-0.7,0-1.7-0.3-2.9-1c-1.2-0.6-2.1-1-2.9-1.2c-7.4-2.4-17.1-6.5-29.1-12.5l-13.6-6.5c-0.2,0.2-0.5,0.3-0.8,0.3
		c-1.1,0-2.1-0.4-3-1.4c-0.9-4.2-1.4-9.1-1.4-14.9l0.3-7.9l1.6,1.1l-1.4-2.4l0.5-2.2l-0.8-1.4c0-0.7,0.1-1.4,0.4-1.9
		c0.3-0.5,0.4-1.2,0.4-1.9l1.1,1.4l1.9-0.8c0,0.5,0.5,1.1,1.5,1.6s1.7,1,2,1.4h0.5l-0.8-0.8l1.1-0.5l0.5,1.1l0.5-0.3
		c0,0.5,0.4,1,1.4,1.2c0.9,0.3,1.5,0.6,1.9,1l0.5-1.6c0.2,1.3,1,2.3,2.4,3v0.5l1.9-1.4v0.5h0.3v-0.5c1.1,0.4,1.6,0.9,1.6,1.6
		l1.6-0.8h0.5l-0.8-1.4c0,0.4-0.2,0.5-0.5,0.5c-0.4,0-0.8-0.2-1.2-0.7c-0.5-0.4-0.6-1-0.4-1.5l-0.5,0.3l0.8,1.6v0.3l-1.4-0.3
		c-0.2-1.1-0.6-1.9-1.2-2.4c-0.6-0.5-1.7-1.2-3.3-2c-1.5-0.8-2.6-1.7-3.1-2.6l-0.3,0.3l1.1,1.4l-0.3,0.3l-1.1-1.1l-0.5,0.3l0.3-1.4
		l-1.6,1.1l-0.3-0.3l0.8-0.5c0-0.5-1.1-1.4-3.4-2.4c-2.3-1.1-3.6-2-3.9-2.7c7.2,2.4,15.4,5.7,24.4,10.1c7.2,3.3,12.7,5.6,16.3,7.1
		l9,3c2.5,0.9,6.2,2.6,10.9,5.2c2.7,1.6,5.3,2.9,7.9,3.8l-0.8,0.3c-0.5,0-1.3-0.3-2.2-0.8c-0.9-0.5-1.6-0.8-2.2-0.8
		c6.5,3.3,15,7,25.5,11.1c7.2,3.1,14.6,6.3,22.1,9.8c7.5,3.4,14.3,7,20.2,10.6H445c0.2,0.7,0.4,1.5,0.7,2.4c0.3,0.9,0.4,1.7,0.4,2.4
		l-0.3,1.4l-1.6-0.5l0.8,0.8l-0.3,0.8l-0.8-1.1l-0.3,1.1l-0.5-0.8l-0.5,1.1v0.3h-0.3l-0.3-1.1l-1.4,2.4c0.5-0.2,1.2-0.4,1.9-0.8
		c0.7-0.4,1.4-0.5,1.9-0.5h0.5c-22.3,11-42.8,20.3-61.7,27.7l-0.3,1.4c-0.4-0.4-0.7-0.5-1.1-0.3c-0.4,0.2-0.5,0.5-0.5,1.1
		c-3.3,0.5-6.7,1.8-10.3,3.8c-3.6,2-5.9,3.2-6.8,3.5l-0.3-0.8l-1.1,1.4l-0.5-0.5c-0.4,0.5-0.9,1-1.6,1.4c-0.7,0.4-1.4,0.7-1.9,1.1
		l-0.5-1.1c-0.2,0.7-0.6,1.3-1.2,1.8c-0.6,0.5-1,0.8-1.2,1l-0.5-0.5l0.3-1.1c-1.1,0.5-2,1.2-2.7,1.9v-0.8c-0.4,0.4-1.3,1.1-2.7,2.2
		c-1.5,1.1-3,1.7-4.6,1.9l2.2-0.8c-0.4-0.2-0.9-0.3-1.5-0.3s-0.9-0.1-0.7-0.3c-0.2,0.4-1,1-2.4,1.9l0.3,0.3l1.9-0.8
		c-0.4,0.7-1,1.1-2,1.1c-1,0-1.6,0-1.8,0l0.3,0.3c-0.9,0.4-2.3,0.9-4.1,1.5c-1.8,0.6-3.2,1.5-4.1,2.6l-2.4,0.3l-0.3-0.3l0.5,0.8
		c-3.1,0.7-6.5,2.2-10.3,4.3v-0.5c-0.7,0-2,0.5-3.8,1.4L316,155.7z M316.7,59.1c-0.1-0.6,0.1-1,0.7-1.2l0.3,1.6l-0.3,0.8h3.3
		l0.8-0.5c1.1,0,1.7-0.3,1.9-0.8l-1.4-0.3c-0.9,0-1.9,0.4-3,1.1v-1.4c0-1.1,0.2-1.9,0.5-2.4c-0.5-0.5-1.3-1.1-2.3-1.8
		c-1-0.6-1.7-1.3-2-2c0.4,0.7,0.6,2.1,0.7,4.1c0.1,2,0.4,3.4,1,4.1C316.8,60.2,316.8,59.8,316.7,59.1z M317.6,38.8
		c-0.5-0.4-1.1-0.8-1.6-1l1.4-0.5v0.3c0,0.4,0.3,0.7,1,1c0.6,0.3,1,0.4,1.2,0.4l-0.3,0.5C318.7,39.5,318.2,39.2,317.6,38.8z
		 M320.3,49.5v-0.3l-1.1-1.6l-0.3,1.1c-0.4,0-0.8-0.2-1.4-0.5c-0.5-0.4-1-0.5-1.4-0.5H316l0.3,0.8c1.3,0,2.3,0.5,3.3,1.4L320.3,49.5
		z M320.3,63.1l-1.4-0.8l1.4-0.8l-0.3-0.3c0,0.2-0.3,0.4-0.8,0.5c-0.5,0.2-0.8,0.5-0.8,0.8l0.5,0.5l-0.3,0.5L320.3,63.1z
		 M328.5,151.1l1.4-0.5l-0.3-0.3l1.1-0.5v-0.3c-0.2,0-0.7,0.2-1.6,0.5c-0.9,0.4-1.4,0.7-1.4,1.1l0.3,0.5L328.5,151.1z M361.3,117.9
		c0-0.9-0.5-1.4-1.4-1.4l-0.5,0.3h1.4l0.5,1.6V117.9z M360.8,119.6l-0.8-1.1c0.5,0.9,0.5,1.6,0,2.2h-0.5l0.5,0.3L360.8,119.6z
		 M360.8,114.1c0.4-0.4,0.5-0.6,0.5-0.8l-0.3-0.5l-0.3,0.5l-0.5-1.1l-0.3,1.9l0.3,1.1C360.3,114.9,360.4,114.5,360.8,114.1z
		 M369.5,127.2c1.1-0.5,1.9-0.8,2.4-0.8h0.5l-0.3,1.1h0.3l0.5-0.5l-0.5-1.6c-0.2,0.4-0.6,0.2-1.4-0.5l-0.5,0.3l1.1,1.1
		c-0.9,0-1.5-0.1-1.9-0.3l-1.1,1.1l-0.8-1.9l0.3-0.3h1.6l0.5,0.3v-1.6h0.5l1.1-0.3c0.4,0,0.5,0.5,0.5,1.6l0.5-0.3l0.8,0.8l-0.3,1.1
		h0.3l0.8-0.5l-0.8-0.8l1.6-1.1l0.5,0.3c-0.4-0.5-0.5-1.3-0.3-2.2c0.2-0.9,0.2-1.5,0-1.9l1.6-1.1l-0.3-0.3c-0.5,0.2-1.4,0.3-2.4,0.3
		c0.7-0.5,2-1,3.8-1.5c1.8-0.4,3.1-1,3.8-1.5l0.8,1.6h0.3c-0.9,0-1.4,0.5-1.4,1.6l0.3,1.9c0.2-1.6,1.2-2.7,3-3.3L385,116l-1.4-1.1
		h-0.5l0.8,1.6h-0.5c-0.4,0-0.5-0.2-0.5-0.5l-0.8-1.4l0.3,1.1l-1.4,0.3l-0.5-0.3l1.1-0.3l-1.6-0.5l1.6-0.5l-0.3-0.5h-0.3l0.5-0.5
		h-1.4v1.4l-1.4,0.3v-0.3c0.5-0.2,1-0.8,1.5-1.9s1-1.6,1.8-1.6l1.1,0.3l0.8-1.9l-0.5-1.1l-0.3,0.3v0.8l-0.3-1.4l0.3-0.5h-0.3
		l-0.8,1.1l0.8-1.6h1.6l0.3-0.5l1.4,0.8l-0.3-0.5c0-0.4,0.3-0.8,0.8-1.2c0.5-0.4,0.8-0.9,0.8-1.2v-0.5h-1.1c0-0.5,0.3-1,1-1.2
		c0.6-0.3,1-0.5,1.2-0.7l-1.9-1.1l0.3,0.8c0,0.4-0.2,0.8-0.5,1.2c-0.4,0.5-0.6,0.8-0.8,1c0-0.4,0.1-0.8,0.3-1.4
		c0.2-0.5,0.1-1-0.3-1.4l-1.1,1.6c0.4-0.7,0.4-1.3,0-1.6l1.4-0.8l-0.3-0.3c-0.4,0.2-0.8,0.4-1.2,0.5c-0.5,0.2-0.9,0.4-1.2,0.5
		l-0.3-1.1l-0.3,0.8L382,100c0,0.9-0.6,1.4-1.9,1.4l-0.8,1.9l1.9-0.5l-0.8-0.5c0.7,0,1.1,0.4,1.1,1.2c0,0.8,0,1.3,0,1.5l0.5,0.5
		l-1.6-0.3c0.4,2.2,1.2,3.8,2.4,4.9l-1.4,0.3l-0.5-1.4l-0.5,0.3l0.3-0.5c0-0.9-0.3-1.6-0.8-2.2l0.5-0.3l-0.5-0.8v-1.4l-1.1-1.1
		c-1.3,0.2-3,0.6-5.2,1.4l-0.5,1.1l0.8,0.8l-0.8,0.3c0.4-0.2,0-0.7-1.1-1.6l-1.1,1.1l0.5,0.5c0-0.4,0-0.5,0.1-0.3
		c0.1,0.2,0.1,0.4,0.1,0.5l-0.3,0.8l-0.5-0.5l-0.5,1.4l0.8,1.6l-0.5,0.5l-0.3-0.5l-1.6,1.1l1.4-2.2c-0.2-0.4-0.4-0.8-0.5-1.4
		c-0.2-0.5-0.5-1-0.8-1.4l-1.9,2.2l-0.3-0.5l-0.5,0.5l0.3,0.3c-1.1,0-2.4,0.9-3.8,2.7l0.8,0.3l-0.8,0.5l1.1,0.5v0.5l-1.4,0.5h-0.3
		c0.5,0.5,0.5,1.3,0,2.2l-1.1-0.5c0.4,0.5,0.9,1.2,1.5,1.9s1,1.4,1,2.2h0.3l1.1-0.8c0,0.9-0.4,1.7-1.1,2.4v-0.3
		c0-0.5-0.2-1.1-0.7-1.6c-0.5-0.5-0.8-1-1-1.4c0,1.3,0.4,2,1.1,2.2l-0.5,0.8l0.3,1.1l-0.5-0.3c0.2,0.9,0.3,2.2,0.3,3.8v-1.6
		c0.2,0.2,0.4,0.2,0.7,0.1c0.3-0.1,0.5-0.1,0.7-0.1l0.3,0.3l-0.8,0.8l1.4,0.3h-1.1l-0.3,1.6l0.3,0.3l1.1-1.4l0.5,0.8l0.5-0.5
		l1.6,1.1l0.3-1.4l0.8,1.4l-1.6,0.8C367.5,128,368.4,127.7,369.5,127.2z M362.7,117.1v-1.4h-0.3v-0.5l0.5-0.8h0.3L363,115h0.8
		l-0.5-0.5l0.3-0.5h0.8l0.5,1.1l-0.3,0.5l-0.5-0.5c0,0.2,0,0.5-0.1,1c-0.1,0.5-0.3,1-0.7,1.5H363L362.7,117.1z M366.5,108.4l1.6,1.1
		h0.3l1.1-1.4l-0.8,1.1l0.8,0.3l-1.9,0.8v1.9l-0.5-1.9l-0.3,0.3c0.2,0.5,0.3,1.1,0.3,1.8c0,0.6-0.3,1-0.8,1c0.2,0.7,0,1.3-0.5,1.6
		L366.5,108.4z M369.1,113.6c-0.3-0.4-0.5-0.7-0.7-1.1c0.9,0.4,1.4,0,1.4-1.1l0.3-0.3v0.3c-0.2,0.4-0.3,0.8-0.4,1.4
		c-0.1,0.5,0.1,0.8,0.7,0.8l-0.5,1.1C369.6,114.3,369.4,114,369.1,113.6z M370.6,108.7l0.8-0.5h0.5l-0.8,0.8l0.3,0.5L370.6,108.7z
		 M371.4,112.2l0.3-1.9h0.3l0.5-0.8l0.8,1.9h0.3l-0.8,1.1h-0.3v-1.4l-0.5,0.8v1.6L371.4,112.2z M373.3,123.9H373l0.8-0.5h0.3v-0.5
		l-1.4,0.3l0.3-1.1l1.9-0.3l0.5,0.3l-1.1,0.8h1.1v0.3c-0.9,0.4-1.4,0.9-1.4,1.6L373.3,123.9z M376.8,112l1.1-0.8l-1.4-0.3l-1.4,0.8
		l0.3-1.4c0.5,0.4,1.2,0.2,1.9-0.5l0.3,0.5c0.2-0.4,0.5-0.8,1.1-1.4s1-1,1.4-1.4c0,0.2,0,0.6,0,1.4s0.2,1.3,0.5,1.6l-1.6-1.1
		c0,0.2,0,0.5-0.1,1c-0.1,0.5-0.3,0.8-0.5,1.1c-0.3,0.3-0.7,0.5-1.2,0.7L376.8,112z M376,113.3c0.2,0.2,0.5,0.3,0.8,0.3
		c0.4,0,0.9-0.2,1.5-0.7c0.6-0.5,1.1-0.7,1.5-0.7c0,0.4-0.3,0.7-0.8,1.1c-0.5,0.4-0.8,0.7-0.8,1.1l-0.5-0.5l-1.9,0.8L376,113.3z
		 M376.6,106.3l1.6-1.1v-0.3l-1.4,0.3c0.4-0.2,0.7-0.5,1-1c0.3-0.5,0.6-0.8,1-1l-0.5,0.5l0.8,0.3c-0.2,0.7,0.1,1.2,0.8,1.4l-0.5,1.1
		v-1.1H379l-0.8,1.1h-0.5l0.3-0.5l-0.8,1.1L376.6,106.3z M377.9,115.8h1.4l0.8,0.3l-0.3,0.5l-1.1-0.5l-0.8,0.8V115.8z M379.5,120.4
		l0.8,0.5l-0.3-1.4l0.8-0.5c-0.5,0-1,0.1-1.5,0.4c-0.5,0.3-1,0.4-1.5,0.4c0,0.4,0.2,0.7,0.5,1.1c0.4,0.4,0.5,0.6,0.5,0.8v0.3
		l-1.1,0.3l1.1,0.5L379.5,120.4z M379.8,124.5c0-0.9,0.6-1.5,1.9-1.9l-0.3-0.3l-2.2,0.5v0.5l0.5,1.4V124.5z M383.1,104.4l0.3-0.5
		h0.8v0.3l-0.3,1.4L383.1,104.4z M385.5,120.9v-0.8h0.3l1.6,0.8h0.3v-1.1l1.1,0.8l0.8-0.5c-0.2-0.2-0.6-0.4-1.2-0.8
		c-0.6-0.4-1-0.8-1.2-1.4l1.6-1.1l-0.3-0.3l-1.9,0.8v2.2h-1.1c-1.3,0-2,0.4-2.2,1.1l1.9,0.5L385.5,120.9z M385.5,109.3l-0.5-1.1
		l-0.5,1.4l0.5,0.5L385.5,109.3z M385.5,104.9h1.1c-0.2,0.4-0.5,0.6-0.8,0.8c-0.4,0.2-0.6,0.3-0.8,0.3L385.5,104.9z M387.2,109.3
		l-0.8-1.9l-0.3,1.4l0.3,0.8L387.2,109.3z M389.3,101.9c-0.2,0.5-0.1,1.5,0.3,3C389.4,104.2,389.3,103.2,389.3,101.9z M392.3,104.1
		c1.1,0,1.8,0.1,2.2,0.3l-0.3-0.5c0-0.2,0.3-0.4,1-0.5c0.6-0.2,1-0.4,1-0.5l-0.5-1.4l-0.5,0.8l-1.4-0.5v0.5l-0.5-0.3l-0.5-1.1h-0.3
		v1.1l-1.1-0.5l-1.6,0.8l1.9,0.8l-1.1,1.4l0.3,0.5l0.5-0.5l0.5,1.1L392.3,104.1z M394.8,106l1.1,0.5l-0.3-2.2l-0.5,0.5l-0.3-0.8
		c-0.2,0.5-0.6,1-1.2,1.2c-0.6,0.3-1,0.6-1.2,1l1.1,0.8L394.8,106z M395.8,108.7c-0.4,0.2-0.8,0.4-1.2,0.5c-0.5,0.2-0.8,0.5-1,0.8
		l1.1,0.5C395.3,110.1,395.7,109.4,395.8,108.7z M397.7,105.5l-0.3-1.4l-1.4-0.3l-0.3,1.4l0.3,0.3l0.5-0.3l-0.5,1.1L397.7,105.5z
		 M398.6,115l-0.8-0.3v-0.3c0,0.7-0.5,1.3-1.6,1.6l0.5,0.3C397,116.3,397.7,115.9,398.6,115z M399.9,104.4l-1.9-0.5l-0.3,0.3
		l0.3,0.3l0.5-0.3l1.1,0.8L399.9,104.4z M403.2,110.3l-0.5-0.3l0.8-0.8c-0.4-0.2-0.7-0.5-1-1c-0.3-0.4-0.5-0.8-0.7-1l-0.3,0.5
		l1.1,1.1l-0.3,0.5l-0.3-0.3l-0.3,1.1v0.3L403.2,110.3z M406.4,109.8l-0.3-0.3c2.9-0.4,5.2-0.7,6.9-1.1c1.7-0.4,2.9-1.2,3.7-2.4
		c-0.2,0.4-0.6,0.5-1.4,0.4c-0.7-0.1-1.1,0-1.1,0.1l0.3-1.1l-0.8-0.3c-0.5,0-1.3,0.6-2.2,1.9l-1.4,0.3l-1.1-1.1l1.4,0.8l0.8-1.1
		c-0.9-0.4-1.7-0.6-2.4-0.7c-0.7-0.1-1.3-0.1-1.6-0.1l1.4-0.8l-1.6,0.8l1.1,1.4h-0.3c-0.4,0-0.8-0.1-1.2-0.4
		c-0.5-0.3-0.9-0.3-1.2-0.1c-0.4,0.2-0.6,0.6-0.8,1.2c-0.2,0.6-0.3,1-0.3,1.2c0.5,0,0.9-0.2,1-0.7c0.1-0.5,0.2-0.7,0.4-0.7h0.3v0.8
		l1.1-0.8l-1.1,1.6l-0.5-0.5l-1.4,1.1v1.9C405.4,110.6,406.2,110.2,406.4,109.8z M435,104.1l0.5,0.8l0.3-1.6l0.5,0.8l1.4-1.1v0.8
		c0.2-0.4,0.5-0.6,1.1-0.7c0.5-0.1,0.9-0.1,1.1-0.1l0.8-1.6l-0.5-0.3l-1.1,0.3v1.4l-1.6-0.3c-0.5,0-1,0.2-1.5,0.5s-1,0.7-1.8,1.1
		l-0.8-0.3v0.5l1.4,0.5L435,104.1z"/>
</g>
</svg>
